<?xml version="1.0" encoding="utf-8"?>

<!DOCTYPE svg PUBLIC "-//W3C//DTD SVG 1.1//EN" "http://www.w3.org/Graphics/SVG/1.1/DTD/svg11.dtd">
<!-- Uploaded to: SVG Repo, www.svgrepo.com, Generator: SVG Repo Mixer Tools -->
<svg height="800px" width="800px" version="1.1" id="_x32_" xmlns="http://www.w3.org/2000/svg" xmlns:xlink="http://www.w3.org/1999/xlink" 
	 viewBox="0 0 512 512"  xml:space="preserve">
<style type="text/css">
	.st0{fill:#000000;}
</style>
<g>
	<path class="st0" d="M230.014,96.263c26.569,0,48.123-21.554,48.123-48.132C278.137,21.546,256.583,0,230.014,0
		c-26.602,0-48.14,21.546-48.14,48.132C181.874,74.71,203.412,96.263,230.014,96.263z"/>
	<path class="st0" d="M148.261,216.23l15.078,2.662l2.192-15.24l-14.592-2.581c-3.912-0.69-7.677,2.151-8.423,6.33
		C141.785,211.597,144.349,215.549,148.261,216.23z"/>
	<path class="st0" d="M240.061,225.028c0.746-4.179-1.834-8.14-5.746-8.821l-15.078-2.662l-2.175,15.248l14.591,2.564
		C235.564,232.048,239.33,229.215,240.061,225.028z"/>
	<path class="st0" d="M230.322,236.949l-12.141-2.142l-10.257,57.269l-4.918-0.86l-0.731,3.416
		c-0.812,4.236-2.743,8.042-5.454,11.134l8.424,1.478l-0.325,1.81l-5.55,31.544c-2.97,16.92-22.122,24.232-33.613,22.211
		c-11.476-2.021-26.83-16.19-23.99-32.363l5.551-31.536l0.325-1.809l9.041,1.582c-1.575-4.017-2.094-8.513-1.234-13.066l0.406-2.71
		l-5.534-0.966l10.258-57.286l-12.124-2.134l-11.377,63.542l-7.434,42.247c-3.602,20.467,10.583,37.55,25.173,43.433
		l-21.992,124.439c-0.876,5.023,2.483,9.812,7.498,10.696c5.032,0.892,9.819-2.467,10.696-7.498l21.976-124.432
		c14.429-0.511,34.944-12.002,38.499-32.225l7.449-42.232L230.322,236.949z"/>
	<path class="st0" d="M382.645,479.059l-16.945-106.464c-0.179-1.12-0.812-2.118-1.753-2.742c-0.861-0.577-1.883-0.747-2.922-0.585
		l-8.002-45.908c-2.061-17.448-31.52-154.222-31.52-154.222c-16.474-75.78-132.521-75.642-143.298-3.302l-4.269,33.41
		l-12.433,87.523c-1.817,9.592,4.48,18.844,14.088,20.654c9.592,1.817,18.828-4.48,20.662-14.08l17.301-76.396l-0.065-0.138
		l2.224-10.176l19.671,3.513c3.587,0.634,6.686,2.687,8.716,5.803c1.931,2.986,2.662,6.589,2.028,10.151
		c-0.941,5.357-4.755,9.479-9.576,10.932l-4.691,25.66l3.148,14.494l-19.525,209.552c-1.218,12.676,8.066,23.939,20.742,25.157
		c12.676,1.217,23.924-8.066,25.158-20.743l32.088-123.148l7.937,15.362c-0.974,0.301-1.851,0.933-2.354,1.827
		c-0.568,0.981-0.698,2.142-0.374,3.213l30.741,101.067c4.155,13.138,14.607,21.627,26.633,21.627c1.624,0,3.295-0.154,4.935-0.462
		C375.536,507.884,384.657,494.664,382.645,479.059z M307.757,390.197l50.59-11.986l5.924,37.306l-52.343-11.572L307.757,390.197z
		 M313.569,409.317L365.1,420.71l1.347,8.464l-43.286,11.67L313.569,409.317z M328.89,459.696l-4.302-14.169l42.638-11.491
		l5.405,34.035L328.89,459.696z M359.485,502.617c-1.153,0.219-2.305,0.325-3.426,0.325c-8.39,0-15.808-6.249-18.843-15.881
		l-6.72-22.082l42.962,8.229l1.12,7.02C376.023,491.467,369.823,500.669,359.485,502.617z"/>
</g>
</svg>